# xmcd CD database file
#
# Track frame offsets:
#	150
#	7977
#	30141
#	56071
#	82052
#	108218
#	139916
#	186260
#	216728
#	247559
#	275454
#
# Disc length: 4089 seconds
#
# Revision: 0
# Processed by: cddbd v1.5.1PL0 Copyright (c) Steve Scherf et al.
# Submitted via: CDex 1.51
#
DISCID=910ff70b
DTITLE=La Barriada  - De Cuba
DYEAR=1900
DGENRE=Salsa
TTITLE0=Cienfuegos - Son Montuno (Lily Martinez)
TTITLE1=Son de la Loma - Son Montuno (Miquel Matamoros)
TTITLE2=Serenata Huazteca - Cumbia (Jose Alfredo Jimenez)
TTITLE3=Corazon Delircuente - Salsa (Juan Kemell Barrera)
TTITLE4=Chan Chan - Son Montuno (Francisco Repilado/Compay Secundo)
TTITLE5=La Bomba - Salsa (D.R.)
TTITLE6=Reloj de Pastora - Son Montuno (Lily Martinez)
TTITLE7=Para pedirte perdon - Salsa  (Juan Kemell Barrera)
TTITLE8=Celos - Son (Juan Kemell Barrera)
TTITLE9=El Solar - Rumba (Juan Kemell Barrera)
TTITLE10=Espuela de Gello Viejo - son Montuno (Juan Kemell Berrera)
EXTD=
EXTT0=
EXTT1=
EXTT2=
EXTT3=
EXTT4=
EXTT5=
EXTT6=
EXTT7=
EXTT8=
EXTT9=
EXTT10=
PLAYORDER=
